<?xml version="1.0" encoding="iso-8859-1"?>
<!-- Generator: Adobe Illustrator 18.1.1, SVG Export Plug-In . SVG Version: 6.00 Build 0)  -->
<svg version="1.1" id="Capa_1" xmlns="http://www.w3.org/2000/svg" xmlns:xlink="http://www.w3.org/1999/xlink" x="0px" y="0px"
	 viewBox="0 0 16.001 16.001" style="enable-background:new 0 0 16.001 16.001;" xml:space="preserve">
<g>
	<g>
		<g>
			<path style="fill:#010002;" d="M15.951,8.88c0.03-0.288,0.05-0.582,0.05-0.88s-0.02-0.592-0.051-0.881l-2.186-0.778
				c-0.127-0.438-0.3-0.855-0.517-1.246l0.994-2.091c-0.369-0.46-0.787-0.878-1.247-1.247L10.9,2.751
				c-0.389-0.216-0.807-0.388-1.243-0.514L8.881,0.051C8.593,0.019,8.299,0,8.001,0S7.409,0.019,7.12,0.051L6.342,2.237
				C5.904,2.363,5.486,2.535,5.097,2.751L3.005,1.757c-0.46,0.369-0.878,0.787-1.247,1.247l0.994,2.091
				c-0.216,0.39-0.388,0.808-0.514,1.246L0.051,7.119C0.02,7.408,0.001,7.702,0.001,8S0.02,8.592,0.052,8.881l2.187,0.778
				c0.126,0.438,0.297,0.854,0.514,1.245l-0.994,2.092c0.369,0.46,0.787,0.879,1.247,1.247l2.091-0.994
				c0.39,0.216,0.808,0.388,1.246,0.515l0.778,2.187c0.288,0.03,0.582,0.05,0.88,0.05s0.592-0.02,0.881-0.051l0.778-2.188
				c0.438-0.126,0.854-0.297,1.245-0.514l2.092,0.994c0.46-0.369,0.879-0.787,1.247-1.247l-0.994-2.092
				c0.216-0.392,0.388-0.81,0.515-1.245L15.951,8.88z M8.001,12c-2.209,0-4-1.791-4-4s1.791-4,4-4s4,1.791,4,4S10.21,12,8.001,12z"
				/>
			<circle style="fill:#010002;" cx="8.001" cy="8" r="2"/>
		</g>
	</g>
</g>
<g>
</g>
<g>
</g>
<g>
</g>
<g>
</g>
<g>
</g>
<g>
</g>
<g>
</g>
<g>
</g>
<g>
</g>
<g>
</g>
<g>
</g>
<g>
</g>
<g>
</g>
<g>
</g>
<g>
</g>
</svg>
